<svg width="39" height="39" viewBox="0 0 39 39" fill="none" xmlns="http://www.w3.org/2000/svg">
<path d="M28.7854 8.0666L38.1393 17.4205C38.6877 17.9689 39 18.723 39 19.5C39 20.277 38.6877 21.0311 38.1393 21.5795L28.7854 30.9334C28.2979 31.4209 27.6428 31.6875 26.9572 31.6875C25.5328 31.6875 24.375 30.5297 24.375 29.1053V24.375H14.625C13.2768 24.375 12.1875 23.2857 12.1875 21.9375V17.0625C12.1875 15.7143 13.2768 14.625 14.625 14.625H24.375V9.89473C24.375 8.47031 25.5328 7.3125 26.9572 7.3125C27.6428 7.3125 28.2979 7.58672 28.7854 8.0666ZM12.1875 7.3125H7.3125C5.96426 7.3125 4.875 8.40176 4.875 9.75V29.25C4.875 30.5982 5.96426 31.6875 7.3125 31.6875H12.1875C13.5357 31.6875 14.625 32.7768 14.625 34.125C14.625 35.4732 13.5357 36.5625 12.1875 36.5625H7.3125C3.27539 36.5625 0 33.2871 0 29.25V9.75C0 5.71289 3.27539 2.4375 7.3125 2.4375H12.1875C13.5357 2.4375 14.625 3.52676 14.625 4.875C14.625 6.22324 13.5357 7.3125 12.1875 7.3125Z" fill="black"/>
</svg>
