<svg width="104" height="83" viewBox="0 0 104 83" fill="none" xmlns="http://www.w3.org/2000/svg">
<g clip-path="url(#clip0_16_33)">
<path d="M48.815 50.6754C50.0662 49.9621 51.6587 50.3836 52.3737 51.6318C53.0887 52.8639 52.6662 54.4525 51.415 55.1658L43.5825 59.6887C42.3475 60.402 40.755 59.8346 40.04 58.7322C39.1787 57.5002 39.7475 55.9115 40.9825 55.182L48.815 50.6754ZM28.3562 27.4451C28.6812 26.2779 29.8837 25.5809 31.005 25.9213L48.7337 30.817C53.8687 32.4219 56.7287 38.0146 55.055 43.1859C53.7712 46.9144 49.9037 49.0705 46.1987 48.957C45.435 48.9408 44.655 48.8273 43.8912 48.6166L42.055 48.0816L41.665 49.8973C41.5025 50.5619 41.2587 51.1941 40.9662 51.7777C39.2112 55.3117 35.3925 57.565 31.3137 56.8518C25.9837 55.8143 22.6362 50.416 23.92 45.2609L28.3562 27.4451ZM28.9575 46.5092C28.3887 48.8111 29.9162 51.259 32.2725 51.7453C34.0275 51.8912 36.01 50.8699 36.6112 48.6977L38.155 41.5162L45.3212 43.6236C47.4662 44.2396 49.6112 42.9914 50.1312 41.3541L50.1475 41.4676C50.96 39.1494 49.595 36.6043 47.3037 35.9396L32.63 31.7896L28.9575 46.5092ZM28.405 78.5744C28.3887 78.542 28.3562 78.4934 28.3237 78.4447L1.23968 31.6437C1.21287 31.5951 1.18654 31.5465 1.16054 31.4978C-1.26331 27.202 0.228768 21.7389 4.52559 19.2586L35.8637 1.21063C40.1862 -1.28164 45.7275 0.197449 48.23 4.51475L75.3675 51.4049C77.8537 55.7008 76.3912 61.1963 72.1175 63.5631C72.085 63.7252 72.0362 63.7414 72.0037 63.7738L40.755 81.768C40.7225 81.7842 40.69 81.8004 40.6412 81.8328C36.3675 84.2482 30.9237 82.8055 28.405 78.5744ZM38.09 77.31C38.1062 77.31 38.1062 77.2937 38.1062 77.2937L69.4525 59.251L69.4687 59.2348C71.2887 58.1486 71.9062 55.798 70.8337 53.9662L43.745 7.15389C42.6725 5.29449 40.2837 4.65578 38.415 5.73057L7.17109 23.7328C5.32997 24.7865 4.68322 27.1209 5.70209 28.9689C5.70697 28.9852 5.71184 28.9852 5.71672 29.0014L32.8575 75.8996L32.8737 75.9158C33.8162 77.699 36.27 78.315 38.09 77.31ZM58.5 83C56.29 83 54.2425 82.2057 52.6662 80.7467L58.0612 77.7801C58.2075 77.7963 58.3537 77.8125 58.5 77.8125H94.9C97.0612 77.8125 98.8 76.0779 98.8 73.9219V19.3072C98.8 17.2971 97.0612 15.4166 94.9 15.4166H60.6125L57.6387 10.4155C57.9312 10.388 58.2075 10.2291 58.5 10.2291H94.9C99.9212 10.2291 104 14.4391 104 19.3072V73.9219C104 78.931 99.9212 83 94.9 83H58.5ZM72.865 22.4684C75.5462 20.1502 79.2675 20.3123 81.7537 22.1117C84.5325 20.3123 88.2212 20.1664 90.935 22.4521L90.9675 22.4684C94.315 25.3701 94.4612 30.4928 91.455 33.6053L84.565 40.7219C83.1512 42.0025 80.7137 42.2619 79.2187 40.6732L72.345 33.6053C69.3387 30.4928 69.485 25.3701 72.865 22.4684ZM76.2612 26.4076C75.1725 27.3316 75.1237 29.0014 76.0825 30.0064L81.9162 36.0045L87.7175 30.0064C88.6762 29.0014 88.6275 27.3316 87.5712 26.4076C86.7587 25.7268 85.41 25.7592 84.4837 26.6832L81.965 29.4553L79.3325 26.6994C78.39 25.743 77.0087 25.7592 76.2775 26.3914L76.2612 26.4076Z" fill="white"/>
</g>
<defs>
<clipPath id="clip0_16_33">
<rect width="104" height="83" fill="white"/>
</clipPath>
</defs>
</svg>
