<svg width="82" height="64" viewBox="0 0 82 64" fill="none" xmlns="http://www.w3.org/2000/svg">
<g clip-path="url(#clip0_16_49)">
<path d="M22.3962 60.5875C22.3834 60.5625 22.3578 60.525 22.3322 60.4875L0.977441 24.4C0.9563 24.3625 0.935544 24.325 0.915044 24.2875C-0.996069 20.975 0.180375 16.7625 3.56826 14.85L28.2772 0.9335C31.6853 -0.98825 36.0543 0.15225 38.0275 3.48125L59.4243 39.6375C61.3847 42.95 60.2315 47.1875 56.8618 49.0125C56.8362 49.1375 56.7978 49.15 56.7722 49.175L32.1337 63.05C32.1081 63.0625 32.0825 63.075 32.044 63.1C28.6744 64.9625 24.3822 63.85 22.3962 60.5875ZM30.0325 59.6125L30.0453 59.6L54.7606 45.6875L54.7734 45.675C56.2084 44.8375 56.6953 43.025 55.8497 41.6125L34.4912 5.51625C33.6456 4.0825 31.7622 3.59 30.2887 4.41875L5.65413 18.3C4.20248 19.1125 3.69254 20.9125 4.49588 22.3375L4.50741 22.3625L25.9068 58.525L25.9197 58.5375C26.6628 59.9125 28.5975 60.3875 30.0325 59.6125ZM45.779 59.975C45.8943 59.9875 46.0097 60 46.125 60H74.825C76.529 60 77.9 58.6625 77.9 57V14.8875C77.9 13.3375 76.529 11.8875 74.825 11.8875H47.7906L45.4459 8.03125C45.6765 8.01 45.8944 7.8875 46.125 7.8875H74.825C78.784 7.8875 82 11.1337 82 14.8875V57C82 60.8625 78.784 64 74.825 64H46.125C44.3825 64 42.7681 63.3875 41.5253 62.2625L45.779 59.975Z" fill="black"/>
</g>
<defs>
<clipPath id="clip0_16_49">
<rect width="82" height="64" fill="white"/>
</clipPath>
</defs>
</svg>
