<svg width="64" height="64" viewBox="0 0 64 64" fill="none" xmlns="http://www.w3.org/2000/svg">
<g clip-path="url(#clip0_16_43)">
<path d="M27 24V26C27 28.2125 25.2125 30 23 30H13C10.7913 30 9 28.2125 9 26V24C9 19.025 13.025 15 18 15C22.975 15 27 19.025 27 24ZM23 26V24C23 23.45 22.9125 22.925 22.75 22.4375C22.2625 22.7875 21.65 23 21 23C19.3375 23 18 21.6625 18 20C18 19.65 18.0625 19.3125 18.175 19C18.1125 19 18.0625 19 18 19C15.2375 19 13 21.2375 13 24V26H23ZM32 24C32 18.475 36.475 14 42 14C47.525 14 52 18.475 52 24V26.2375C52 28.3125 50.3125 30 48.2375 30H35.7625C33.6875 30 31.8875 28.3125 31.8875 26.2375L32 24ZM47.5125 21.6375C46.975 22.4625 46.05 23 45 23C43.3375 23 42 21.6625 42 20C42 19.25 42.275 18.5625 42.725 18.0375C42.4875 18.0125 42.1375 18 42 18C38.6875 18 36 20.6875 36 24V26H48V24C48 23.1625 47.825 22.3625 47.5125 21.6375ZM33.175 56H30.4875C19.45 56 10.235 47.5875 9.235 36.5875C9.10875 35.2 10.2025 34 11.5975 34H49.325C51.3 34 52.85 35.7 52.6625 37.6625C52.125 43.6125 49.0375 48.7625 44.5375 52.075C41.4 54.5375 37.4375 56 33.175 56ZM32.5875 52C36.1375 52 39.45 50.85 42.125 48.8875C42.5 48.5875 42.8625 48.2625 43.2125 47.9375C41.8125 46.725 39.9875 46 38 46C34.275 46 31.15 48.5375 30.2625 51.9875C30.5 51.8875 30.75 52 31 52H32.5875ZM26.2625 51.475C27.425 46.0625 32.2375 42 38 42C41.0375 42 43.8 43.125 45.9125 44.9875C47.3125 42.95 48.2625 40.575 48.6 38H13.475C14.775 44.65 19.825 49.8625 26.2625 51.475ZM0 32C0 14.325 14.325 0 32 0C49.675 0 64 14.325 64 32C64 49.675 49.675 64 32 64C14.325 64 0 49.675 0 32ZM32 60C47.4625 60 60 47.4625 60 32C60 16.5375 47.4625 4 32 4C16.5375 4 4 16.5375 4 32C4 47.4625 16.5375 60 32 60Z" fill="black"/>
</g>
<defs>
<clipPath id="clip0_16_43">
<rect width="64" height="64" fill="white"/>
</clipPath>
</defs>
</svg>
