<svg width="64" height="64" viewBox="0 0 64 64" fill="none" xmlns="http://www.w3.org/2000/svg">
<g clip-path="url(#clip0_16_45)">
<path d="M17.4125 49.9125C16.35 49.5875 15.7625 48.4625 16.0875 47.4125C18.15 40.7625 24.5375 36 32 36C39.475 36 45.85 40.7625 47.9125 47.4125C48.2375 48.4625 47.65 49.5875 46.5875 49.9125C45.5375 50.2375 44.4125 49.65 44.0875 48.5875C42.5625 43.675 37.7625 40 32 40C26.2375 40 21.4375 43.675 19.9125 48.5875C19.5875 49.65 18.4625 50.2375 17.4125 49.9125ZM25.05 26C25.05 27.6625 23.7 29 22.05 29C20.3875 29 19.05 27.6625 19.05 26C19.05 24.3375 20.3875 23 22.05 23C23.7 23 25.05 24.3375 25.05 26ZM39.05 26C39.05 24.3375 40.3875 23 42.05 23C43.7 23 45.05 24.3375 45.05 26C45.05 27.6625 43.7 29 42.05 29C40.3875 29 39.05 27.6625 39.05 26ZM64 32C64 49.675 49.675 64 32 64C14.325 64 0 49.675 0 32C0 14.325 14.325 0 32 0C49.675 0 64 14.325 64 32ZM32 4C16.5375 4 4 16.5375 4 32C4 47.4625 16.5375 60 32 60C47.4625 60 60 47.4625 60 32C60 16.5375 47.4625 4 32 4Z" fill="black"/>
</g>
<defs>
<clipPath id="clip0_16_45">
<rect width="64" height="64" fill="white"/>
</clipPath>
</defs>
</svg>
