<svg width="27" height="27" viewBox="0 0 27 27" fill="none" xmlns="http://www.w3.org/2000/svg">
<path d="M13.5 0C12.5666 0 11.8125 0.754102 11.8125 1.6875V5.0625C11.8125 5.9959 12.5666 6.75 13.5 6.75C14.4334 6.75 15.1875 5.9959 15.1875 5.0625V3.51738C19.9758 4.31894 23.625 8.48496 23.625 13.5C23.625 19.0898 19.0898 23.625 13.5 23.625C7.91016 23.625 3.375 19.0898 3.375 13.5C3.375 10.6682 4.53516 8.10527 6.4125 6.27012C7.07695 5.61621 7.0875 4.55098 6.43887 3.88125C5.79023 3.21152 4.71973 3.20625 4.05 3.85488C1.55566 6.30703 0 9.72422 0 13.5C0 20.9566 6.04336 27 13.5 27C20.9566 27 27 20.9566 27 13.5C27 6.04336 20.9566 0 13.5 0ZM10.1777 8.38477C9.68203 7.88906 8.88047 7.88906 8.39004 8.38477C7.89961 8.88047 7.89434 9.68203 8.39004 10.1725L12.6088 14.3912C13.1045 14.8869 13.9061 14.8869 14.3965 14.3912C14.8869 13.8955 14.8922 13.0939 14.3965 12.6035L10.1777 8.38477Z" fill="black"/>
</svg>
