<svg width="813" height="119" viewBox="0 0 813 119" fill="none" xmlns="http://www.w3.org/2000/svg">
<path d="M0.273682 0.418518C244.274 159.919 599.274 154.919 812.274 0.418518" stroke="#999999"/>
<mask id="path-2-outside-1_24_35" maskUnits="userSpaceOnUse" x="332.274" y="75.2726" width="147" height="31" fill="black">
<rect fill="white" x="332.274" y="75.2726" width="147" height="31"/>
<path d="M348.168 78.638V97.5789C348.168 99.6875 347.518 101.379 346.219 102.654C344.919 103.905 343.203 104.53 341.07 104.53C338.912 104.53 337.183 103.893 335.884 102.618C334.584 101.318 333.935 99.5527 333.935 97.3214H337.282C337.306 98.5719 337.625 99.5894 338.238 100.374C338.875 101.159 339.819 101.551 341.07 101.551C342.32 101.551 343.252 101.183 343.865 100.448C344.478 99.6875 344.784 98.7313 344.784 97.5789V78.638H348.168ZM366.383 104.53C364.005 104.53 361.835 103.978 359.873 102.875C357.912 101.747 356.355 100.19 355.203 98.2041C354.075 96.1936 353.511 93.9378 353.511 91.4369C353.511 88.936 354.075 86.6925 355.203 84.7065C356.355 82.6959 357.912 81.139 359.873 80.0356C361.835 78.9077 364.005 78.3438 366.383 78.3438C368.786 78.3438 370.968 78.9077 372.93 80.0356C374.891 81.139 376.436 82.6836 377.564 84.6697C378.692 86.6557 379.256 88.9114 379.256 91.4369C379.256 93.9623 378.692 96.2181 377.564 98.2041C376.436 100.19 374.891 101.747 372.93 102.875C370.968 103.978 368.786 104.53 366.383 104.53ZM366.383 101.625C368.173 101.625 369.779 101.208 371.201 100.374C372.648 99.5404 373.776 98.3512 374.585 96.8065C375.418 95.2618 375.835 93.472 375.835 91.4369C375.835 89.3773 375.418 87.5874 374.585 86.0673C373.776 84.5226 372.66 83.3334 371.238 82.4998C369.816 81.6661 368.198 81.2493 366.383 81.2493C364.569 81.2493 362.951 81.6661 361.529 82.4998C360.106 83.3334 358.979 84.5226 358.145 86.0673C357.336 87.5874 356.931 89.3773 356.931 91.4369C356.931 93.472 357.336 95.2618 358.145 96.8065C358.979 98.3512 360.106 99.5404 361.529 100.374C362.975 101.208 364.593 101.625 366.383 101.625ZM403.093 86.0673C402.382 84.5716 401.352 83.4192 400.004 82.6101C398.655 81.7764 397.086 81.3596 395.296 81.3596C393.506 81.3596 391.888 81.7764 390.441 82.6101C389.019 83.4192 387.891 84.5961 387.058 86.1408C386.248 87.661 385.844 89.4263 385.844 91.4369C385.844 93.4474 386.248 95.2128 387.058 96.733C387.891 98.2532 389.019 99.4301 390.441 100.264C391.888 101.073 393.506 101.477 395.296 101.477C397.797 101.477 399.856 100.73 401.475 99.2339C403.093 97.7383 404.037 95.7154 404.307 93.1655H394.082V90.4439H407.874V93.0184C407.678 95.127 407.016 97.064 405.888 98.8294C404.76 100.57 403.277 101.956 401.438 102.985C399.599 103.991 397.552 104.493 395.296 104.493C392.918 104.493 390.748 103.942 388.786 102.838C386.825 101.71 385.268 100.153 384.115 98.1673C382.987 96.1813 382.424 93.9378 382.424 91.4369C382.424 88.936 382.987 86.6925 384.115 84.7065C385.268 82.6959 386.825 81.139 388.786 80.0356C390.748 78.9077 392.918 78.3438 395.296 78.3438C398.018 78.3438 400.42 79.0181 402.505 80.3666C404.613 81.7151 406.146 83.6154 407.102 86.0673H403.093ZM423.921 104.53C421.543 104.53 419.373 103.978 417.412 102.875C415.45 101.747 413.893 100.19 412.741 98.2041C411.613 96.1936 411.049 93.9378 411.049 91.4369C411.049 88.936 411.613 86.6925 412.741 84.7065C413.893 82.6959 415.45 81.139 417.412 80.0356C419.373 78.9077 421.543 78.3438 423.921 78.3438C426.324 78.3438 428.506 78.9077 430.468 80.0356C432.429 81.139 433.974 82.6836 435.102 84.6697C436.23 86.6557 436.794 88.9114 436.794 91.4369C436.794 93.9623 436.23 96.2181 435.102 98.2041C433.974 100.19 432.429 101.747 430.468 102.875C428.506 103.978 426.324 104.53 423.921 104.53ZM423.921 101.625C425.711 101.625 427.317 101.208 428.739 100.374C430.186 99.5404 431.314 98.3512 432.123 96.8065C432.957 95.2618 433.373 93.472 433.373 91.4369C433.373 89.3773 432.957 87.5874 432.123 86.0673C431.314 84.5226 430.198 83.3334 428.776 82.4998C427.354 81.6661 425.736 81.2493 423.921 81.2493C422.107 81.2493 420.489 81.6661 419.067 82.4998C417.644 83.3334 416.517 84.5226 415.683 86.0673C414.874 87.5874 414.469 89.3773 414.469 91.4369C414.469 93.472 414.874 95.2618 415.683 96.8065C416.517 98.3512 417.644 99.5404 419.067 100.374C420.513 101.208 422.131 101.625 423.921 101.625ZM450.061 101.588C453.175 99.0868 455.615 97.0395 457.38 95.4457C459.145 93.8275 460.629 92.1479 461.83 90.4071C463.056 88.6417 463.669 86.9132 463.669 85.2214C463.669 83.6276 463.277 82.3772 462.492 81.47C461.732 80.5382 460.494 80.0724 458.777 80.0724C457.11 80.0724 455.811 80.5995 454.879 81.6538C453.972 82.6836 453.481 84.069 453.408 85.8098H450.171C450.269 83.0637 451.103 80.9428 452.672 79.4471C454.241 77.9515 456.264 77.2037 458.741 77.2037C461.266 77.2037 463.264 77.9025 464.736 79.3C466.231 80.6976 466.979 82.6223 466.979 85.0742C466.979 87.1093 466.366 89.0953 465.14 91.0323C463.939 92.9448 462.566 94.6366 461.021 96.1078C459.476 97.5544 457.502 99.2462 455.1 101.183H467.751V103.978H450.061V101.588ZM470.738 80.7344V77.6818H477.652V104.273H474.268V80.7344H470.738Z"/>
</mask>
<path d="M348.168 78.638H349.19V77.6164H348.168V78.638ZM346.219 102.654L346.927 103.39L346.934 103.384L346.219 102.654ZM335.884 102.618L335.162 103.34L335.168 103.347L335.884 102.618ZM333.935 97.3214V96.2998H332.913V97.3214H333.935ZM337.282 97.3214L338.303 97.3014L338.283 96.2998H337.282V97.3214ZM338.238 100.374L337.433 101.003L337.439 101.011L337.445 101.018L338.238 100.374ZM343.865 100.448L344.65 101.102L344.655 101.095L344.66 101.089L343.865 100.448ZM344.784 78.638V77.6164H343.763V78.638H344.784ZM347.146 78.638V97.5789H349.19V78.638H347.146ZM347.146 97.5789C347.146 99.4603 346.576 100.873 345.503 101.925L346.934 103.384C348.461 101.886 349.19 99.9147 349.19 97.5789H347.146ZM345.51 101.918C344.435 102.953 342.99 103.508 341.07 103.508V105.552C343.415 105.552 345.403 104.857 346.927 103.39L345.51 101.918ZM341.07 103.508C339.127 103.508 337.673 102.942 336.599 101.888L335.168 103.347C336.694 104.843 338.698 105.552 341.07 105.552V103.508ZM336.606 101.895C335.538 100.827 334.956 99.3436 334.956 97.3214H332.913C332.913 99.7618 333.631 101.809 335.162 103.34L336.606 101.895ZM333.935 98.3431H337.282V96.2998H333.935V98.3431ZM336.26 97.3415C336.288 98.7556 336.652 100.004 337.433 101.003L339.043 99.7451C338.597 99.1751 338.324 98.3882 338.303 97.3014L336.26 97.3415ZM337.445 101.018C338.322 102.097 339.592 102.573 341.07 102.573V100.529C340.047 100.529 339.429 100.22 339.031 99.7298L337.445 101.018ZM341.07 102.573C342.524 102.573 343.787 102.137 344.65 101.102L343.08 99.7936C342.717 100.229 342.116 100.529 341.07 100.529V102.573ZM344.66 101.089C345.445 100.116 345.806 98.9208 345.806 97.5789H343.763C343.763 98.5418 343.511 99.2593 343.07 99.8063L344.66 101.089ZM345.806 97.5789V78.638H343.763V97.5789H345.806ZM344.784 79.6596H348.168V77.6164H344.784V79.6596ZM359.873 102.875L359.364 103.761L359.373 103.765L359.873 102.875ZM355.203 98.2041L354.312 98.7039L354.315 98.7104L354.319 98.7169L355.203 98.2041ZM355.203 84.7065L354.316 84.1984L354.314 84.202L355.203 84.7065ZM359.873 80.0356L360.374 80.9261L360.383 80.9213L359.873 80.0356ZM372.93 80.0356L372.421 80.9213L372.429 80.926L372.93 80.0356ZM377.564 84.6697L378.452 84.1652L377.564 84.6697ZM377.564 98.2041L376.676 97.6996L377.564 98.2041ZM372.93 102.875L373.431 103.765L373.439 103.761L372.93 102.875ZM371.201 100.374L370.691 99.4889L370.685 99.4927L371.201 100.374ZM374.585 96.8065L373.686 96.3213L373.68 96.3325L374.585 96.8065ZM374.585 86.0673L373.68 86.5413L373.684 86.5499L373.689 86.5585L374.585 86.0673ZM371.238 82.4998L370.721 83.3811L371.238 82.4998ZM361.529 82.4998L362.045 83.3811L361.529 82.4998ZM358.145 86.0673L357.246 85.582L357.243 85.5872L358.145 86.0673ZM358.145 96.8065L357.24 97.2806L357.246 97.2917L358.145 96.8065ZM361.529 100.374L361.012 101.255L361.018 101.259L361.529 100.374ZM366.383 103.508C364.17 103.508 362.174 102.997 360.374 101.985L359.373 103.765C361.496 104.96 363.84 105.552 366.383 105.552V103.508ZM360.383 101.989C358.579 100.952 357.15 99.5248 356.086 97.6914L354.319 98.7169C355.56 100.855 357.245 102.542 359.364 103.761L360.383 101.989ZM356.094 97.7043C355.059 95.8592 354.532 93.7781 354.532 91.4369H352.489C352.489 94.0976 353.091 96.5279 354.312 98.7039L356.094 97.7043ZM354.532 91.4369C354.532 89.0956 355.059 87.0289 356.091 85.211L354.314 84.202C353.091 86.3561 352.489 88.7764 352.489 91.4369H354.532ZM356.089 85.2145C357.153 83.3589 358.578 81.9362 360.374 80.926L359.373 79.1452C357.246 80.3417 355.557 82.033 354.316 84.1984L356.089 85.2145ZM360.383 80.9213C362.181 79.8871 364.174 79.3654 366.383 79.3654V77.3222C363.836 77.3222 361.489 77.9284 359.364 79.15L360.383 80.9213ZM366.383 79.3654C368.619 79.3654 370.624 79.888 372.421 80.9213L373.439 79.15C371.313 77.9274 368.953 77.3222 366.383 77.3222V79.3654ZM372.429 80.926C374.226 81.9369 375.638 83.3471 376.676 85.1742L378.452 84.1652C377.234 82.0202 375.557 80.341 373.431 79.1452L372.429 80.926ZM376.676 85.1742C377.707 86.9906 378.234 89.0692 378.234 91.4369H380.277C380.277 88.7537 379.676 86.3208 378.452 84.1652L376.676 85.1742ZM378.234 91.4369C378.234 93.8046 377.707 95.8832 376.676 97.6996L378.452 98.7086C379.676 96.553 380.277 94.1201 380.277 91.4369H378.234ZM376.676 97.6996C375.637 99.5286 374.222 100.953 372.421 101.989L373.439 103.761C375.56 102.541 377.235 100.852 378.452 98.7086L376.676 97.6996ZM372.429 101.985C370.631 102.996 368.623 103.508 366.383 103.508V105.552C368.949 105.552 371.306 104.961 373.431 103.765L372.429 101.985ZM366.383 102.646C368.339 102.646 370.126 102.189 371.718 101.255L370.685 99.4927C369.432 100.227 368.008 100.603 366.383 100.603V102.646ZM371.711 101.259C373.334 100.324 374.595 98.989 375.49 97.2806L373.68 96.3325C372.956 97.7135 371.962 98.7565 370.691 99.4889L371.711 101.259ZM375.484 97.2917C376.41 95.5758 376.857 93.6142 376.857 91.4369H374.814C374.814 93.3297 374.427 94.9479 373.686 96.3213L375.484 97.2917ZM376.857 91.4369C376.857 89.2379 376.411 87.2727 375.481 85.576L373.689 86.5585C374.426 87.9021 374.814 89.5168 374.814 91.4369H376.857ZM375.49 85.5932C374.597 83.8893 373.351 82.5545 371.755 81.6184L370.721 83.3811C371.969 84.1123 372.954 85.1558 373.68 86.5413L375.49 85.5932ZM371.755 81.6184C370.16 80.6838 368.36 80.2277 366.383 80.2277V82.2709C368.035 82.2709 369.471 82.6484 370.721 83.3811L371.755 81.6184ZM366.383 80.2277C364.406 80.2277 362.606 80.6838 361.012 81.6184L362.045 83.3811C363.295 82.6484 364.732 82.2709 366.383 82.2709V80.2277ZM361.012 81.6184C359.418 82.5528 358.162 83.8839 357.246 85.5821L359.044 86.5525C359.795 85.1612 360.795 84.114 362.045 83.3811L361.012 81.6184ZM357.243 85.5872C356.341 87.2816 355.91 89.2426 355.91 91.4369H357.953C357.953 89.5121 358.33 87.8933 359.047 86.5473L357.243 85.5872ZM355.91 91.4369C355.91 93.6095 356.342 95.567 357.24 97.2806L359.05 96.3325C358.329 94.9567 357.953 93.3345 357.953 91.4369H355.91ZM357.246 97.2917C358.162 98.9899 359.418 100.321 361.012 101.255L362.045 99.4927C360.795 98.7598 359.795 97.7126 359.044 96.3213L357.246 97.2917ZM361.018 101.259C362.631 102.189 364.428 102.646 366.383 102.646V100.603C364.759 100.603 363.319 100.227 362.039 99.4889L361.018 101.259ZM403.093 86.0673L402.17 86.5059L402.447 87.0889H403.093V86.0673ZM400.004 82.6101L399.466 83.4791L399.478 83.4861L400.004 82.6101ZM390.441 82.6101L390.946 83.4981L390.951 83.4953L390.441 82.6101ZM387.058 86.1408L386.159 85.6556L386.156 85.6608L387.058 86.1408ZM387.058 96.733L386.156 97.213L386.162 97.2242L387.058 96.733ZM390.441 100.264L389.925 101.145L389.933 101.15L389.942 101.155L390.441 100.264ZM401.475 99.2339L402.168 99.9842L401.475 99.2339ZM404.307 93.1655L405.323 93.2729L405.442 92.1439H404.307V93.1655ZM394.082 93.1655H393.061V94.1871H394.082V93.1655ZM394.082 90.4439V89.4223H393.061V90.4439H394.082ZM407.874 90.4439H408.896V89.4223H407.874V90.4439ZM407.874 93.0184L408.891 93.113L408.896 93.0658V93.0184H407.874ZM405.888 98.8294L406.746 99.3849L406.749 99.3794L405.888 98.8294ZM401.438 102.985L401.928 103.882L401.937 103.877L401.438 102.985ZM388.786 102.838L388.277 103.724L388.285 103.729L388.786 102.838ZM384.115 98.1673L383.227 98.6719L383.232 98.6801L384.115 98.1673ZM384.115 84.7065L383.229 84.1984L383.227 84.202L384.115 84.7065ZM388.786 80.0356L389.287 80.9261L389.295 80.9213L388.786 80.0356ZM402.505 80.3666L401.95 81.2243L401.954 81.2273L402.505 80.3666ZM407.102 86.0673V87.0889H408.597L408.054 85.6961L407.102 86.0673ZM404.016 85.6286C403.223 83.9614 402.06 82.6523 400.529 81.7341L399.478 83.4861C400.645 84.1861 401.541 85.1818 402.17 86.5059L404.016 85.6286ZM400.541 81.7411C399.011 80.7952 397.25 80.338 395.296 80.338V82.3812C396.921 82.3812 398.299 82.7576 399.466 83.4791L400.541 81.7411ZM395.296 80.338C393.34 80.338 391.544 80.7954 389.931 81.7249L390.951 83.4953C392.232 82.7574 393.672 82.3812 395.296 82.3812V80.338ZM389.936 81.7221C388.335 82.6329 387.076 83.9552 386.159 85.6556L387.957 86.626C388.706 85.237 389.703 84.2055 390.946 83.498L389.936 81.7221ZM386.156 85.6608C385.256 87.3517 384.822 89.2871 384.822 91.4369H386.866C386.866 89.5656 387.241 87.9702 387.959 86.6208L386.156 85.6608ZM384.822 91.4369C384.822 93.5867 385.256 95.5221 386.156 97.213L387.959 96.253C387.241 94.9035 386.866 93.3082 386.866 91.4369H384.822ZM386.162 97.2242C387.079 98.8976 388.335 100.213 389.925 101.145L390.958 99.3824C389.703 98.647 388.703 97.6088 387.953 96.2418L386.162 97.2242ZM389.942 101.155C391.554 102.056 393.346 102.499 395.296 102.499V100.456C393.666 100.456 392.222 100.089 390.94 99.3721L389.942 101.155ZM395.296 102.499C398.017 102.499 400.335 101.678 402.168 99.9842L400.781 98.4837C399.378 99.7811 397.577 100.456 395.296 100.456V102.499ZM402.168 99.9842C403.997 98.2934 405.031 96.0265 405.323 93.2729L403.291 93.058C403.043 95.4044 402.188 97.1831 400.781 98.4837L402.168 99.9842ZM404.307 92.1439H394.082V94.1871H404.307V92.1439ZM395.104 93.1655V90.4439H393.061V93.1655H395.104ZM394.082 91.4655H407.874V89.4223H394.082V91.4655ZM406.853 90.4439V93.0184H408.896V90.4439H406.853ZM406.857 92.9237C406.676 94.8721 406.066 96.6527 405.027 98.2793L406.749 99.3794C407.966 97.4753 408.68 95.3819 408.891 93.113L406.857 92.9237ZM405.031 98.2739C403.995 99.873 402.635 101.144 400.939 102.094L401.937 103.877C403.919 102.767 405.526 101.267 406.746 99.3848L405.031 98.2739ZM400.948 102.089C399.271 103.006 397.394 103.472 395.296 103.472V105.515C397.71 105.515 399.927 104.975 401.928 103.882L400.948 102.089ZM395.296 103.472C393.083 103.472 391.087 102.96 389.287 101.948L388.285 103.729C390.409 104.923 392.752 105.515 395.296 105.515V103.472ZM389.295 101.953C387.492 100.915 386.063 99.4881 384.999 97.6546L383.232 98.6801C384.473 100.819 386.158 102.505 388.277 103.724L389.295 101.953ZM385.004 97.6628C383.971 95.8449 383.445 93.7782 383.445 91.4369H381.402C381.402 94.0974 382.004 96.5177 383.227 98.6718L385.004 97.6628ZM383.445 91.4369C383.445 89.0956 383.971 87.0289 385.004 85.211L383.227 84.202C382.004 86.3561 381.402 88.7764 381.402 91.4369H383.445ZM385.002 85.2145C386.065 83.3589 387.491 81.9362 389.287 80.926L388.285 79.1452C386.158 80.3417 384.47 82.033 383.229 84.1984L385.002 85.2145ZM389.295 80.9213C391.094 79.8871 393.087 79.3654 395.296 79.3654V77.3222C392.748 77.3222 390.401 77.9284 388.277 79.15L389.295 80.9213ZM395.296 79.3654C397.84 79.3654 400.047 79.993 401.95 81.2243L403.06 79.5089C400.794 78.0431 398.195 77.3222 395.296 77.3222V79.3654ZM401.954 81.2273C403.871 82.453 405.268 84.1771 406.15 86.4385L408.054 85.6961C407.023 83.0537 405.356 80.9773 403.055 79.5059L401.954 81.2273ZM407.102 85.0456H403.093V87.0889H407.102V85.0456ZM417.412 102.875L416.902 103.761L416.911 103.765L417.412 102.875ZM412.741 98.2041L411.85 98.7039L411.853 98.7104L411.857 98.7169L412.741 98.2041ZM412.741 84.7065L411.854 84.1984L411.852 84.202L412.741 84.7065ZM417.412 80.0356L417.912 80.9261L417.921 80.9213L417.412 80.0356ZM430.468 80.0356L429.959 80.9213L429.967 80.926L430.468 80.0356ZM435.102 84.6697L435.99 84.1652L435.102 84.6697ZM435.102 98.2041L434.214 97.6996L435.102 98.2041ZM430.468 102.875L430.969 103.765L430.977 103.761L430.468 102.875ZM428.739 100.374L428.229 99.4889L428.223 99.4927L428.739 100.374ZM432.123 96.8065L431.224 96.3213L431.218 96.3325L432.123 96.8065ZM432.123 86.0673L431.218 86.5413L431.222 86.5499L431.227 86.5585L432.123 86.0673ZM428.776 82.4998L428.259 83.3811L428.776 82.4998ZM419.067 82.4998L419.583 83.3811L419.067 82.4998ZM415.683 86.0673L414.784 85.582L414.781 85.5872L415.683 86.0673ZM415.683 96.8065L414.778 97.2806L414.784 97.2917L415.683 96.8065ZM419.067 100.374L418.55 101.255L418.556 101.259L419.067 100.374ZM423.921 103.508C421.708 103.508 419.712 102.997 417.912 101.985L416.911 103.765C419.034 104.96 421.378 105.552 423.921 105.552V103.508ZM417.921 101.989C416.117 100.952 414.688 99.5248 413.624 97.6914L411.857 98.7169C413.098 100.855 414.783 102.542 416.902 103.761L417.921 101.989ZM413.632 97.7043C412.597 95.8592 412.07 93.7781 412.07 91.4369H410.027C410.027 94.0976 410.629 96.5279 411.85 98.7039L413.632 97.7043ZM412.07 91.4369C412.07 89.0956 412.597 87.0289 413.629 85.211L411.852 84.202C410.629 86.3561 410.027 88.7764 410.027 91.4369H412.07ZM413.627 85.2145C414.691 83.3589 416.116 81.9362 417.912 80.926L416.911 79.1452C414.784 80.3417 413.096 82.033 411.854 84.1984L413.627 85.2145ZM417.921 80.9213C419.719 79.8871 421.712 79.3654 423.921 79.3654V77.3222C421.374 77.3222 419.027 77.9284 416.902 79.15L417.921 80.9213ZM423.921 79.3654C426.157 79.3654 428.162 79.888 429.959 80.9213L430.977 79.15C428.851 77.9274 426.491 77.3222 423.921 77.3222V79.3654ZM429.967 80.926C431.764 81.9369 433.176 83.3471 434.214 85.1742L435.99 84.1652C434.772 82.0202 433.095 80.341 430.969 79.1452L429.967 80.926ZM434.214 85.1742C435.245 86.9906 435.772 89.0692 435.772 91.4369H437.815C437.815 88.7537 437.215 86.3208 435.99 84.1652L434.214 85.1742ZM435.772 91.4369C435.772 93.8046 435.245 95.8832 434.214 97.6996L435.99 98.7086C437.215 96.553 437.815 94.1201 437.815 91.4369H435.772ZM434.214 97.6996C433.175 99.5286 431.76 100.953 429.959 101.989L430.977 103.761C433.098 102.541 434.773 100.852 435.99 98.7086L434.214 97.6996ZM429.967 101.985C428.169 102.996 426.161 103.508 423.921 103.508V105.552C426.487 105.552 428.844 104.961 430.969 103.765L429.967 101.985ZM423.921 102.646C425.877 102.646 427.664 102.189 429.256 101.255L428.223 99.4927C426.971 100.227 425.546 100.603 423.921 100.603V102.646ZM429.249 101.259C430.872 100.324 432.133 98.989 433.028 97.2806L431.218 96.3325C430.495 97.7135 429.5 98.7565 428.229 99.4889L429.249 101.259ZM433.022 97.2917C433.948 95.5758 434.395 93.6142 434.395 91.4369H432.352C432.352 93.3297 431.965 94.9479 431.224 96.3213L433.022 97.2917ZM434.395 91.4369C434.395 89.2379 433.949 87.2727 433.019 85.576L431.227 86.5585C431.964 87.9021 432.352 89.5168 432.352 91.4369H434.395ZM433.028 85.5932C432.135 83.8893 430.89 82.5545 429.293 81.6184L428.259 83.3811C429.507 84.1123 430.492 85.1558 431.218 86.5413L433.028 85.5932ZM429.293 81.6184C427.698 80.6838 425.899 80.2277 423.921 80.2277V82.2709C425.573 82.2709 427.009 82.6484 428.259 83.3811L429.293 81.6184ZM423.921 80.2277C421.944 80.2277 420.144 80.6838 418.55 81.6184L419.583 83.3811C420.833 82.6484 422.27 82.2709 423.921 82.2709V80.2277ZM418.55 81.6184C416.956 82.5528 415.7 83.8839 414.784 85.5821L416.582 86.5525C417.333 85.1612 418.333 84.114 419.583 83.3811L418.55 81.6184ZM414.781 85.5872C413.879 87.2816 413.448 89.2426 413.448 91.4369H415.491C415.491 89.5121 415.868 87.8933 416.585 86.5473L414.781 85.5872ZM413.448 91.4369C413.448 93.6095 413.88 95.567 414.778 97.2806L416.588 96.3325C415.867 94.9567 415.491 93.3345 415.491 91.4369H413.448ZM414.784 97.2917C415.7 98.9899 416.956 100.321 418.55 101.255L419.583 99.4927C418.333 98.7598 417.333 97.7126 416.582 96.3213L414.784 97.2917ZM418.556 101.259C420.169 102.189 421.966 102.646 423.921 102.646V100.603C422.297 100.603 420.857 100.227 419.577 99.4889L418.556 101.259ZM450.061 101.588L449.421 100.791L449.039 101.098V101.588H450.061ZM457.38 95.4457L458.064 96.2041L458.07 96.1988L457.38 95.4457ZM461.83 90.4071L460.991 89.8244L460.989 89.8268L461.83 90.4071ZM462.492 81.47L461.7 82.1158L461.71 82.1271L461.719 82.1383L462.492 81.47ZM454.879 81.6539L454.113 80.9773L454.112 80.9785L454.879 81.6539ZM453.408 85.8098V86.8314H454.387L454.429 85.8529L453.408 85.8098ZM450.171 85.8098L449.15 85.7733L449.113 86.8314H450.171V85.8098ZM452.672 79.4471L453.377 80.1867L452.672 79.4471ZM464.736 79.3L464.032 80.0407L464.038 80.0465L464.736 79.3ZM465.14 91.0323L464.277 90.486L464.275 90.4889L465.14 91.0323ZM461.021 96.1078L461.719 96.8535L461.725 96.8475L461.021 96.1078ZM455.1 101.183L454.458 100.388L452.204 102.205H455.1V101.183ZM467.751 101.183H468.773V100.162H467.751V101.183ZM467.751 103.978V105H468.773V103.978H467.751ZM450.061 103.978H449.039V105H450.061V103.978ZM450.701 102.384C453.821 99.8781 456.278 97.8168 458.064 96.2041L456.695 94.6874C454.951 96.2622 452.529 98.2955 449.421 100.791L450.701 102.384ZM458.07 96.1988C459.885 94.5355 461.421 92.7989 462.671 90.9874L460.989 89.8268C459.837 91.4969 458.406 93.1195 456.69 94.6926L458.07 96.1988ZM462.669 90.9898C463.982 89.0997 464.691 87.1715 464.691 85.2214H462.647C462.647 86.6548 462.13 88.1838 460.991 89.8244L462.669 90.9898ZM464.691 85.2214C464.691 83.4639 464.256 81.9482 463.265 80.8017L461.719 82.1383C462.297 82.8062 462.647 83.7914 462.647 85.2214H464.691ZM463.284 80.8242C462.257 79.5658 460.664 79.0508 458.777 79.0508V81.094C460.323 81.094 461.207 81.5106 461.7 82.1158L463.284 80.8242ZM458.777 79.0508C456.877 79.0508 455.275 79.6627 454.113 80.9773L455.644 82.3304C456.346 81.5364 457.344 81.094 458.777 81.094V79.0508ZM454.112 80.9785C453.013 82.2266 452.468 83.8564 452.387 85.7667L454.429 85.8529C454.495 84.2815 454.931 83.1407 455.646 82.3292L454.112 80.9785ZM453.408 84.7882H450.171V86.8314H453.408V84.7882ZM451.192 85.8463C451.283 83.292 452.049 81.4524 453.377 80.1867L451.967 78.7076C450.157 80.4332 449.255 82.8353 449.15 85.7733L451.192 85.8463ZM453.377 80.1867C454.729 78.8981 456.486 78.2253 458.741 78.2253V76.182C456.042 76.182 453.754 77.0049 451.967 78.7076L453.377 80.1867ZM458.741 78.2253C461.071 78.2253 462.794 78.865 464.032 80.0407L465.439 78.5594C463.734 76.9399 461.461 76.182 458.741 76.182V78.2253ZM464.038 80.0465C465.286 81.2131 465.957 82.8447 465.957 85.0742H468.001C468.001 82.4 467.176 80.1822 465.433 78.5536L464.038 80.0465ZM465.957 85.0742C465.957 86.8922 465.413 88.6912 464.277 90.486L466.003 91.5787C467.319 89.4995 468.001 87.3265 468.001 85.0742H465.957ZM464.275 90.4889C463.116 92.3337 461.796 93.9587 460.316 95.368L461.725 96.8475C463.335 95.3146 464.761 93.5559 466.005 91.5758L464.275 90.4889ZM460.323 95.3621C458.803 96.7856 456.85 98.4602 454.458 100.388L455.741 101.979C458.155 100.032 460.15 98.3232 461.719 96.8534L460.323 95.3621ZM455.1 102.205H467.751V100.162H455.1V102.205ZM466.73 101.183V103.978H468.773V101.183H466.73ZM467.751 102.957H450.061V105H467.751V102.957ZM451.083 103.978V101.588H449.039V103.978H451.083ZM470.738 80.7344H469.716V81.756H470.738V80.7344ZM470.738 77.6818V76.6602H469.716V77.6818H470.738ZM477.652 77.6818H478.674V76.6602H477.652V77.6818ZM477.652 104.273V105.294H478.674V104.273H477.652ZM474.268 104.273H473.247V105.294H474.268V104.273ZM474.268 80.7344H475.29V79.7128H474.268V80.7344ZM471.759 80.7344V77.6818H469.716V80.7344H471.759ZM470.738 78.7034H477.652V76.6602H470.738V78.7034ZM476.63 77.6818V104.273H478.674V77.6818H476.63ZM477.652 103.251H474.268V105.294H477.652V103.251ZM475.29 104.273V80.7344H473.247V104.273H475.29ZM474.268 79.7128H470.738V81.756H474.268V79.7128Z" fill="#999999" mask="url(#path-2-outside-1_24_35)"/>
</svg>
