<svg width="36" height="36" viewBox="0 0 36 36" fill="none" xmlns="http://www.w3.org/2000/svg">
<path d="M18.9965 0C17.2176 0 15.6777 1.03359 14.9465 2.53125C14.4543 2.34844 13.927 2.25 13.3715 2.25C10.8895 2.25 8.87148 4.26797 8.87148 6.75V18.3867L8.68164 18.1969C6.92383 16.4391 4.07617 16.4391 2.31836 18.1969C0.560547 19.9547 0.560547 22.8023 2.31836 24.5602L8.48477 30.7266C11.8598 34.1016 16.4371 36 21.2113 36H21.809H22.3715C22.477 36 22.5824 35.993 22.6879 35.9719C29.1355 35.5359 34.2895 30.3891 34.7184 23.9414C34.7395 23.8359 34.7465 23.7305 34.7465 23.625V11.25C34.7465 8.76797 32.7285 6.75 30.2465 6.75C29.8598 6.75 29.4801 6.79922 29.1215 6.89062V6.75C29.1215 4.26797 27.1035 2.25 24.6215 2.25C24.066 2.25 23.5387 2.34844 23.0465 2.53125C22.3152 1.03359 20.7754 0 18.9965 0ZM17.8715 6.75703V6.75V4.5C17.8715 3.88125 18.3777 3.375 18.9965 3.375C19.6152 3.375 20.1215 3.88125 20.1215 4.5V6.74297V6.75V16.3125C20.1215 17.2477 20.8738 18 21.809 18C22.7441 18 23.4965 17.2477 23.4965 16.3125V6.75C23.4965 6.75 23.4965 6.75 23.4965 6.74297C23.4965 6.12422 24.0027 5.61797 24.6215 5.61797C25.2402 5.61797 25.7465 6.12422 25.7465 6.74297V10.6734V10.6805V16.3055C25.7465 17.2406 26.4988 17.993 27.434 17.993C28.3691 17.993 29.1215 17.2406 29.1215 16.3055V11.257V11.25C29.1215 10.6313 29.6277 10.125 30.2465 10.125C30.8652 10.125 31.3715 10.6313 31.3715 11.25V23.407C31.3645 23.4492 31.3645 23.4984 31.3574 23.5406C31.1184 28.4414 27.1879 32.3719 22.2871 32.6109C22.2449 32.6109 22.1957 32.618 22.1535 32.625H21.809H21.2113C17.3301 32.625 13.6105 31.0852 10.8684 28.343L4.70195 22.1695C4.26602 21.7336 4.26602 21.0164 4.70195 20.5805C5.13789 20.1445 5.85508 20.1445 6.29102 20.5805L9.36367 23.6531C9.84883 24.1383 10.573 24.2789 11.2059 24.0188C11.8387 23.7586 12.2465 23.1398 12.2465 22.4578V6.75C12.2465 6.13125 12.7527 5.625 13.3715 5.625C13.9902 5.625 14.4965 6.12422 14.4965 6.74297V16.3125C14.4965 17.2477 15.2488 18 16.184 18C17.1191 18 17.8715 17.2477 17.8715 16.3125V6.75703Z" fill="white"/>
</svg>
