<svg width="60" height="48" viewBox="0 0 60 48" fill="none" xmlns="http://www.w3.org/2000/svg">
<path d="M0.700125 18.2719C-0.741187 15.7687 0.114188 12.5813 2.61094 11.1375L20.6906 0.700125C23.1844 -0.741187 26.3812 0.114188 27.825 2.61094L43.4812 29.7281C44.9156 32.2313 44.0625 35.4188 41.5687 36.8625L23.4844 47.2969C20.9906 48.7406 17.8031 47.8875 16.3594 45.3938L0.700125 18.2719ZM4.5975 16.0219L20.2594 43.1438C20.4563 43.4813 20.8969 43.6031 21.2344 43.3219L39.3187 32.9625C39.6656 32.7656 39.7781 32.325 39.5813 31.9781L23.925 4.86094C23.7281 4.51687 23.2875 4.39875 22.9406 4.5975L4.86094 15.0375C4.51687 15.2344 4.39875 15.675 4.5975 16.0219ZM46.0781 28.2281L33.2531 6.02344C33.4219 6.0075 33.5812 5.91562 33.75 5.91562H54.75C57.6469 5.91562 60 8.35031 60 11.1656V42.75C60 45.6469 57.6469 48 54.75 48H33.75C32.475 48 31.2938 47.5406 30.3844 46.6969L43.0687 39.4594C46.9969 37.1906 48.3469 32.1656 46.0781 28.2281Z" fill="black"/>
</svg>
